<svg width="23" height="23" viewBox="0 0 23 23" fill="none" xmlns="http://www.w3.org/2000/svg">
<path fill-rule="evenodd" clip-rule="evenodd" d="M6.90399 1.69997C3.92165 1.69997 1.50399 4.11763 1.50399 7.09997V15.9C1.50399 18.8823 3.92165 21.3 6.90399 21.3H15.704C18.6863 21.3 21.104 18.8823 21.104 15.9V7.09997C21.104 4.11763 18.6863 1.69997 15.704 1.69997H6.90399ZM0.303986 7.09997C0.303986 3.45489 3.25891 0.499969 6.90399 0.499969H15.704C19.3491 0.499969 22.304 3.45489 22.304 7.09997V15.9C22.304 19.545 19.3491 22.5 15.704 22.5H6.90399C3.25891 22.5 0.303986 19.545 0.303986 15.9V7.09997ZM11.304 7.19997C8.92916 7.19997 7.00399 9.12514 7.00399 11.5C7.00399 13.8748 8.92916 15.8 11.304 15.8C13.6788 15.8 15.604 13.8748 15.604 11.5C15.604 9.12514 13.6788 7.19997 11.304 7.19997ZM5.80399 11.5C5.80399 8.4624 8.26642 5.99997 11.304 5.99997C14.3416 5.99997 16.804 8.4624 16.804 11.5C16.804 14.5375 14.3416 17 11.304 17C8.26642 17 5.80399 14.5375 5.80399 11.5ZM16.904 3.89996C17.5115 3.89996 18.004 4.39244 18.004 4.99996C18.004 5.60747 17.5115 6.09996 16.904 6.09996C16.2965 6.09996 15.804 5.60747 15.804 4.99996C15.804 4.39244 16.2965 3.89996 16.904 3.89996Z" fill="black"/>
</svg>
