<svg width="22" height="22" viewBox="0 0 22 22" fill="none" xmlns="http://www.w3.org/2000/svg">
<path fill-rule="evenodd" clip-rule="evenodd" d="M1.91439 9.83805C1.91439 5.29375 5.60979 1.59938 10.1531 1.59938C14.6953 1.59938 18.3907 5.29375 18.3907 9.83805C18.3907 14.3824 14.6953 18.0767 10.1531 18.0767C5.60979 18.0767 1.91439 14.3824 1.91439 9.83805ZM17.1209 16.0319C18.5909 14.3803 19.4891 12.2144 19.4891 9.83805C19.4891 4.68914 15.2999 0.5 10.1531 0.5C5.00621 0.5 0.81604 4.68914 0.81604 9.83805C0.81604 14.987 5.00621 19.1761 10.1531 19.1761C12.5294 19.1761 14.6953 18.2738 16.3439 16.808L20.8758 21.3399C20.9846 21.4466 21.1252 21.5 21.2658 21.5C21.4054 21.5 21.5461 21.4466 21.6528 21.3399C21.8674 21.1253 21.8674 20.7784 21.6528 20.5638L17.1209 16.0319Z" fill="black" stroke="black" stroke-width="0.2"/>
</svg>
